<svg width="106" height="106" viewBox="0 0 106 106" fill="none" xmlns="http://www.w3.org/2000/svg">
<path fill-rule="evenodd" clip-rule="evenodd" d="M100.877 67.2217C100.656 67.2217 46.5516 68.37 46.5516 68.37C33.0611 68.5117 19.5869 69.352 6.18328 70.8875C2.20828 71.55 1.14828 72.61 0.839117 73.5817C0.579306 74.6954 0.489957 75.842 0.574117 76.9825C0.638276 77.3138 0.822535 77.6098 1.09153 77.8136C1.36052 78.0173 1.6953 78.1146 2.03162 78.0867C1.70583 78.2652 1.45778 78.5582 1.33542 78.909C1.21306 79.2597 1.22506 79.6434 1.36912 79.9858C2.07578 81.885 5.78578 81.355 7.86162 81.62C8.92162 81.62 99.9933 80.2508 101.274 79.6325C102.545 79.1397 103.631 78.2644 104.383 77.1276C105.135 75.9908 105.516 74.6486 105.472 73.2863C105.428 71.924 104.963 70.6088 104.14 69.5225C103.317 68.4361 102.176 67.6322 100.877 67.2217ZM99.4191 74.8183C96.2833 75.26 39.7058 77.645 35.5983 77.7775C1.85495 79.0142 7.15495 77.7775 2.69412 77.7775C3.93078 77.115 2.69412 74.1117 4.28412 73.3608C6.75745 72.3892 99.0658 71.9033 99.4191 71.9917C100.832 72.5217 100.567 73.9792 99.4191 74.8183Z" fill="#3B3B3B"/>
<path fill-rule="evenodd" clip-rule="evenodd" d="M84.8292 97.8143C88.667 99.1927 86.2209 92.4206 86.3474 93.1397C86.1224 89.505 85.0093 85.9257 83.0579 82.562C82.4253 81.4533 78.3344 82.1125 79.0936 83.431C79.954 88.4063 81.8886 93.2577 84.8292 97.8143Z" fill="#3B3B3B"/>
<path fill-rule="evenodd" clip-rule="evenodd" d="M15.611 93.3096C15.611 92.9622 13.5574 99.0995 16.9801 97.8257C17.7948 96.5549 18.4813 95.2387 19.0337 93.8886C20.094 91.6259 20.8583 89.2889 21.3155 86.9119C22 83.3222 21.8859 84.1617 22 83.8143C22 82.4826 18.5013 82.9458 18.197 84.0459C16.5193 86.9685 15.6395 90.1202 15.611 93.3096Z" fill="#3B3B3B"/>
<ellipse cx="92.8292" cy="46.5107" rx="9.12569" ry="8.51731" transform="rotate(-0.424664 92.8292 46.5107)" fill="#FFF0B9"/>
<path d="M91.6318 39.283C88.6879 38.999 85.7426 39.8131 83.3804 41.5638C82.4638 42.194 81.6964 43.0113 81.1306 43.9597C80.5649 44.9081 80.2141 45.9654 80.1023 47.0592C79.9904 48.153 80.1202 49.2575 80.4827 50.2974C80.8452 51.3372 81.4318 52.2879 82.2026 53.0843C83.2543 54.1063 84.5921 54.797 86.0452 55.0685C86.1975 55.0953 86.3544 55.0625 86.4824 54.9772C86.6105 54.892 86.6996 54.7609 86.7308 54.612C86.9337 53.5759 85.3701 54.3588 83.3055 52.1168C82.7536 51.4621 82.3511 50.6985 82.1252 49.8778C81.8993 49.057 81.8552 48.1981 81.9959 47.359C82.1366 46.52 82.4589 45.7203 82.941 45.0141C83.423 44.3078 84.0536 43.7114 84.7902 43.2651C86.7257 41.8925 89.0978 41.2475 91.4756 41.4473C95.3063 41.814 97.811 49.2066 96.1426 51.3633C94.7776 53.1228 92.6351 53.2703 92.6425 54.2672C92.6458 54.7186 92.9362 55.1679 93.6998 54.8989C95.0176 54.1815 96.2447 53.3138 97.3555 52.3137C99.9355 49.2097 97.1302 39.9947 91.6318 39.283Z" fill="#3B3B3B"/>
<path d="M92.334 57.5848C88.5792 57.0294 90.3333 59.4076 90.6641 52.5038C90.7005 50.6685 90.5764 48.8332 90.2936 47.0244C90.27 46.8857 90.2037 46.7606 90.1062 46.6709C90.0088 46.5812 89.8864 46.5325 89.7603 46.5335C89.6342 46.5344 89.5126 46.5848 89.4164 46.676C89.3203 46.7671 89.2559 46.8932 89.2344 47.0322C89.1523 47.6744 88.9189 48.9786 88.7566 50.5156C88.1705 49.5683 87.367 48.8153 86.431 48.3361C86.3277 48.2453 86.1984 48.1998 86.0674 48.2082C85.9364 48.2166 85.8128 48.2783 85.7197 48.3817C85.6266 48.4851 85.5705 48.623 85.5619 48.7696C85.5534 48.9161 85.5929 49.0612 85.6732 49.1776C86.1828 50.8369 87.2357 52.2187 88.6191 53.0439L88.6466 56.7568C88.6496 57.165 88.4964 57.5744 88.6529 57.6121L86.6569 57.7241C86.4957 57.7253 86.3416 57.7981 86.2286 57.9266C86.1156 58.055 86.0528 58.2285 86.0542 58.409C86.0555 58.5894 86.1208 58.762 86.2357 58.8888C86.3507 59.0155 86.5058 59.086 86.6669 59.0848L90.0194 59.235C90.5687 59.1993 91.1192 59.1952 91.669 59.2227C91.6741 59.9226 91.4055 61.1687 91.222 62.181C90.8229 64.5557 91.389 63.6183 90.2611 63.7239C89.078 63.8557 87.8864 63.8645 86.7015 63.7503C86.0561 61.014 86.358 59.5731 85.5085 59.7544C84.659 59.9357 85.1566 63.8201 85.3892 64.7515C85.6219 65.6829 88.958 65.9692 89.566 66.0036C90.6078 65.9959 92.0837 65.9849 92.6498 65.0476C93.2 63.0882 93.4948 61.0497 93.5253 58.9951C93.5712 58.1589 93.2379 57.7142 92.334 57.5848Z" fill="#3B3B3B"/>
<path fill-rule="evenodd" clip-rule="evenodd" d="M32.8588 23.3566C33.1545 23.4635 33.5446 23.6523 33.6327 23.2874C33.652 23.2353 33.6551 23.1786 33.6416 23.1247C33.6281 23.0708 33.5987 23.0222 33.5572 22.9854C33.488 22.9162 30.8707 21.7081 30.5686 21.5697C32.0912 19.9339 32.1479 20.1919 29.0209 17.7821C28.9666 17.7374 28.8973 17.7151 28.8272 17.7198C28.757 17.7245 28.6913 17.7558 28.6434 17.8073C28.3036 18.1471 29.0335 18.3736 30.512 20.1415C30.3547 20.2988 29.411 21.3055 29.304 21.4502C29.2441 21.5105 29.2012 21.5858 29.1798 21.6681C29.1584 21.7505 29.1593 21.837 29.1823 21.9189C29.2054 22.0008 29.2497 22.0752 29.3109 22.1343C29.3721 22.1934 29.4479 22.2353 29.5305 22.2555C30.1723 22.4065 32.0598 23.0734 32.8588 23.3566Z" fill="black"/>
<path fill-rule="evenodd" clip-rule="evenodd" d="M32.0281 29.019C31.852 28.7421 31.5689 28.9246 31.2417 29.0127C30.537 29.2266 29.0962 29.6356 28.1462 29.9313C28.1902 28.5408 28.2154 27.9871 27.819 27.8173C26.576 27.6847 25.3218 27.6974 24.0818 27.855C24.0439 27.8496 24.0053 27.8524 23.9686 27.8632C23.9319 27.874 23.898 27.8925 23.8691 27.9176C23.8402 27.9427 23.817 27.9736 23.8012 28.0084C23.7853 28.0432 23.7771 28.081 23.7771 28.1193C23.7771 28.1575 23.7853 28.1953 23.8012 28.2301C23.817 28.2649 23.8402 28.2959 23.8691 28.3209C23.898 28.346 23.9319 28.3645 23.9686 28.3753C24.0053 28.3861 24.0439 28.3889 24.0818 28.3835C24.7046 28.4276 26.4223 28.5597 27.1584 28.6541C27.1332 28.9309 27.1018 30.4975 27.1206 30.6548C27.1166 30.7404 27.135 30.8256 27.1742 30.9018C27.2134 30.978 27.2719 31.0426 27.3439 31.0891C27.4159 31.1356 27.4988 31.1624 27.5844 31.1668C27.67 31.1712 27.7552 31.153 27.8316 31.1141C28.5426 30.7681 30.795 29.8998 31.896 29.4531C31.9341 29.4343 31.968 29.4078 31.9955 29.3754C32.023 29.343 32.0436 29.3053 32.0559 29.2646C32.0683 29.2239 32.0722 29.1812 32.0675 29.1389C32.0627 29.0967 32.0493 29.0558 32.0281 29.019Z" fill="black"/>
<path fill-rule="evenodd" clip-rule="evenodd" d="M37.76 14.0134C37.5712 17.3983 37.5586 17.7884 37.9991 18.0275C38.6054 18.1135 39.2189 18.1367 39.8299 18.0967C39.5279 19.053 39.119 20.4812 38.9114 21.1922C38.5968 22.2492 39.3014 21.9598 39.3707 21.7773C39.5342 21.3998 40.6353 18.5497 41.0002 17.7695C41.0264 17.6933 41.0349 17.6121 41.0253 17.5321C41.0156 17.4521 40.9879 17.3753 40.9443 17.3075C40.9007 17.2397 40.8424 17.1826 40.7736 17.1406C40.7048 17.0986 40.6274 17.0727 40.5472 17.0648C40.3333 17.0522 38.8044 17.0837 38.5339 17.1277C38.408 16.3602 38.3074 14.674 38.2633 14.0511C38.2801 14.0121 38.2874 13.9696 38.2845 13.9271C38.2815 13.8847 38.2685 13.8436 38.2465 13.8072C38.2244 13.7709 38.194 13.7403 38.1578 13.718C38.1216 13.6958 38.0805 13.6825 38.0381 13.6793C37.9957 13.6762 37.9532 13.6832 37.914 13.6997C37.8749 13.7163 37.8402 13.742 37.813 13.7747C37.7858 13.8074 37.7668 13.8461 37.7576 13.8876C37.7484 13.9291 37.7492 13.9722 37.76 14.0134Z" fill="black"/>
</svg>
