<svg width="106" height="87" viewBox="0 0 106 87" fill="none" xmlns="http://www.w3.org/2000/svg">
<path fill-rule="evenodd" clip-rule="evenodd" d="M100.877 56.2217C100.656 56.2217 46.5516 57.37 46.5516 57.37C33.0611 57.5117 19.5869 58.352 6.18328 59.8875C2.20828 60.55 1.14828 61.61 0.839117 62.5817C0.579306 63.6954 0.489957 64.842 0.574117 65.9825C0.638276 66.3138 0.822535 66.6098 1.09153 66.8136C1.36052 67.0173 1.6953 67.1146 2.03162 67.0867C1.70583 67.2652 1.45778 67.5582 1.33542 67.909C1.21306 68.2597 1.22506 68.6434 1.36912 68.9858C2.07578 70.885 5.78578 70.355 7.86162 70.62C8.92162 70.62 99.9933 69.2508 101.274 68.6325C102.545 68.1397 103.631 67.2644 104.383 66.1276C105.135 64.9908 105.516 63.6486 105.472 62.2863C105.428 60.924 104.963 59.6088 104.14 58.5225C103.317 57.4361 102.176 56.6322 100.877 56.2217ZM99.4191 63.8183C96.2833 64.26 39.7058 66.645 35.5983 66.7775C1.85495 68.0142 7.15495 66.7775 2.69412 66.7775C3.93078 66.115 2.69412 63.1117 4.28412 62.3608C6.75745 61.3892 99.0658 60.9033 99.4191 60.9917C100.832 61.5217 100.567 62.9792 99.4191 63.8183Z" fill="#3B3B3B"/>
<path fill-rule="evenodd" clip-rule="evenodd" d="M84.8292 86.8143C88.667 88.1927 86.2209 81.4206 86.3474 82.1397C86.1224 78.505 85.0093 74.9257 83.0579 71.562C82.4253 70.4533 78.3344 71.1125 79.0936 72.431C79.954 77.4063 81.8886 82.2577 84.8292 86.8143Z" fill="#3B3B3B"/>
<path fill-rule="evenodd" clip-rule="evenodd" d="M15.611 82.3096C15.611 81.9622 13.5574 88.0995 16.9801 86.8257C17.7948 85.5549 18.4813 84.2387 19.0337 82.8886C20.094 80.6259 20.8583 78.2889 21.3155 75.9119C22 72.3222 21.8859 73.1617 22 72.8143C22 71.4826 18.5013 71.9458 18.197 73.0459C16.5193 75.9685 15.6395 79.1202 15.611 82.3096Z" fill="#3B3B3B"/>
<ellipse cx="92.8292" cy="35.5107" rx="9.12569" ry="8.51731" transform="rotate(-0.424664 92.8292 35.5107)" fill="#FFF0B9"/>
<path d="M91.6318 28.283C88.6879 27.999 85.7426 28.8131 83.3804 30.5638C82.4638 31.194 81.6964 32.0113 81.1306 32.9597C80.5649 33.9081 80.2141 34.9654 80.1023 36.0592C79.9904 37.153 80.1202 38.2575 80.4827 39.2974C80.8452 40.3372 81.4318 41.2879 82.2026 42.0843C83.2543 43.1063 84.5921 43.797 86.0452 44.0685C86.1975 44.0953 86.3544 44.0625 86.4824 43.9772C86.6105 43.892 86.6996 43.7609 86.7308 43.612C86.9337 42.5759 85.3701 43.3588 83.3055 41.1168C82.7536 40.4621 82.3511 39.6985 82.1252 38.8778C81.8993 38.057 81.8552 37.1981 81.9959 36.359C82.1366 35.52 82.4589 34.7203 82.941 34.0141C83.423 33.3078 84.0536 32.7114 84.7902 32.2651C86.7257 30.8925 89.0978 30.2475 91.4756 30.4473C95.3063 30.814 97.811 38.2066 96.1426 40.3633C94.7776 42.1228 92.6351 42.2703 92.6425 43.2672C92.6458 43.7186 92.9362 44.1679 93.6998 43.8989C95.0176 43.1815 96.2447 42.3138 97.3555 41.3137C99.9355 38.2097 97.1302 28.9947 91.6318 28.283Z" fill="#3B3B3B"/>
<path d="M92.334 46.5848C88.5792 46.0294 90.3333 48.4076 90.6641 41.5038C90.7005 39.6685 90.5764 37.8332 90.2936 36.0244C90.27 35.8857 90.2037 35.7606 90.1062 35.6709C90.0088 35.5812 89.8864 35.5325 89.7603 35.5335C89.6342 35.5344 89.5126 35.5848 89.4164 35.676C89.3203 35.7671 89.2559 35.8932 89.2344 36.0322C89.1523 36.6744 88.9189 37.9786 88.7566 39.5156C88.1705 38.5683 87.367 37.8153 86.431 37.3361C86.3277 37.2453 86.1984 37.1998 86.0674 37.2082C85.9364 37.2166 85.8128 37.2783 85.7197 37.3817C85.6266 37.4851 85.5705 37.623 85.5619 37.7696C85.5534 37.9161 85.5929 38.0612 85.6732 38.1776C86.1828 39.8369 87.2357 41.2187 88.6191 42.0439L88.6466 45.7568C88.6496 46.165 88.4964 46.5744 88.6529 46.6121L86.6569 46.7241C86.4957 46.7253 86.3416 46.7981 86.2286 46.9266C86.1156 47.055 86.0528 47.2285 86.0542 47.409C86.0555 47.5894 86.1208 47.762 86.2357 47.8888C86.3507 48.0155 86.5058 48.086 86.6669 48.0848L90.0194 48.235C90.5687 48.1993 91.1192 48.1952 91.669 48.2227C91.6741 48.9226 91.4055 50.1687 91.222 51.181C90.8229 53.5557 91.389 52.6183 90.2611 52.7239C89.078 52.8557 87.8864 52.8645 86.7015 52.7503C86.0561 50.014 86.358 48.5731 85.5085 48.7544C84.659 48.9357 85.1566 52.8201 85.3892 53.7515C85.6219 54.6829 88.958 54.9692 89.566 55.0036C90.6078 54.9959 92.0837 54.9849 92.6498 54.0476C93.1999 52.0882 93.4948 50.0497 93.5253 47.9951C93.5712 47.1589 93.2379 46.7142 92.334 46.5848Z" fill="#3B3B3B"/>
<path fill-rule="evenodd" clip-rule="evenodd" d="M32.8593 12.3566C33.155 12.4635 33.5451 12.6523 33.6332 12.2874C33.6525 12.2353 33.6556 12.1786 33.6421 12.1247C33.6286 12.0708 33.5992 12.0222 33.5577 11.9854C33.4885 11.9162 30.8711 10.7081 30.5691 10.5697C32.0917 8.9339 32.1483 9.19185 29.0214 6.78214C28.9671 6.73742 28.8978 6.71513 28.8276 6.7198C28.7575 6.72448 28.6917 6.75578 28.6439 6.80731C28.3041 7.14706 29.034 7.37356 30.5125 9.14152C30.3552 9.29881 29.4115 10.3055 29.3045 10.4502C29.2445 10.5105 29.2017 10.5858 29.1803 10.6681C29.1589 10.7505 29.1598 10.837 29.1828 10.9189C29.2059 11.0008 29.2502 11.0752 29.3114 11.1343C29.3726 11.1934 29.4484 11.2353 29.531 11.2555C30.1728 11.4065 32.0603 12.0734 32.8593 12.3566Z" fill="black"/>
<path fill-rule="evenodd" clip-rule="evenodd" d="M32.0286 18.019C31.8525 17.7421 31.5693 17.9246 31.2422 18.0127C30.5375 18.2266 29.0967 18.6356 28.1467 18.9313C28.1907 17.5408 28.2159 16.9871 27.8195 16.8173C26.5765 16.6847 25.3223 16.6974 24.0822 16.855C24.0444 16.8496 24.0058 16.8524 23.9691 16.8632C23.9324 16.874 23.8985 16.8925 23.8696 16.9176C23.8407 16.9427 23.8175 16.9736 23.8017 17.0084C23.7858 17.0432 23.7776 17.081 23.7776 17.1193C23.7776 17.1575 23.7858 17.1953 23.8017 17.2301C23.8175 17.2649 23.8407 17.2959 23.8696 17.3209C23.8985 17.346 23.9324 17.3645 23.9691 17.3753C24.0058 17.3861 24.0444 17.3889 24.0822 17.3835C24.7051 17.4276 26.4227 17.5597 27.1589 17.6541C27.1337 17.9309 27.1022 19.4975 27.1211 19.6548C27.1171 19.7404 27.1355 19.8256 27.1747 19.9018C27.2139 19.978 27.2724 20.0426 27.3444 20.0891C27.4164 20.1356 27.4993 20.1624 27.5849 20.1668C27.6705 20.1712 27.7557 20.153 27.8321 20.1141C28.543 19.7681 30.7955 18.8998 31.8965 18.4531C31.9346 18.4343 31.9685 18.4078 31.996 18.3754C32.0235 18.343 32.044 18.3053 32.0564 18.2646C32.0688 18.2239 32.0727 18.1812 32.0679 18.1389C32.0632 18.0967 32.0498 18.0558 32.0286 18.019Z" fill="black"/>
<path fill-rule="evenodd" clip-rule="evenodd" d="M37.7605 3.01336C37.5717 6.39829 37.5591 6.78837 37.9996 7.02745C38.6058 7.11346 39.2194 7.13666 39.8304 7.09666C39.5284 8.053 39.1195 9.48121 38.9118 10.1922C38.5973 11.2492 39.3019 10.9598 39.3711 10.7773C39.5347 10.3998 40.6358 7.54966 41.0007 6.7695C41.0269 6.69326 41.0354 6.61209 41.0257 6.53207C41.0161 6.45206 40.9884 6.37527 40.9448 6.30747C40.9012 6.23967 40.8429 6.18262 40.7741 6.1406C40.7053 6.09857 40.6279 6.07267 40.5477 6.06483C40.3338 6.05224 38.8049 6.0837 38.5343 6.12774C38.4085 5.36016 38.3078 3.67399 38.2638 3.05111C38.2806 3.01206 38.2879 2.96955 38.2849 2.92713C38.282 2.88471 38.269 2.8436 38.247 2.80723C38.2249 2.77086 38.1945 2.74028 38.1583 2.71803C38.122 2.69579 38.081 2.68252 38.0386 2.67934C37.9962 2.67616 37.9537 2.68316 37.9145 2.69975C37.8753 2.71634 37.8407 2.74204 37.8135 2.77472C37.7863 2.8074 37.7673 2.8461 37.7581 2.88761C37.7488 2.92912 37.7497 2.97224 37.7605 3.01336Z" fill="black"/>
</svg>
